<?xml version="1.0" encoding="UTF-8" standalone="no"?>
<!-- Created with Inkscape (http://www.inkscape.org/) -->

<svg
   width="48"
   height="48"
   viewBox="0 0 12.7 12.7"
   version="1.1"
   id="svg383"
   xml:space="preserve"
   inkscape:version="1.2.2 (b0a8486541, 2022-12-01)"
   sodipodi:docname="drawing.svg"
   inkscape:export-filename="drawing.png"
   inkscape:export-xdpi="96"
   inkscape:export-ydpi="96"
   xmlns:inkscape="http://www.inkscape.org/namespaces/inkscape"
   xmlns:sodipodi="http://sodipodi.sourceforge.net/DTD/sodipodi-0.dtd"
   xmlns="http://www.w3.org/2000/svg"
   xmlns:svg="http://www.w3.org/2000/svg"><sodipodi:namedview
     id="namedview385"
     pagecolor="#ffffff"
     bordercolor="#000000"
     borderopacity="0.25"
     inkscape:showpageshadow="2"
     inkscape:pageopacity="0.0"
     inkscape:pagecheckerboard="0"
     inkscape:deskcolor="#d1d1d1"
     inkscape:document-units="mm"
     showgrid="false"
     inkscape:zoom="11.602469"
     inkscape:cx="11.376889"
     inkscape:cy="21.633326"
     inkscape:window-width="1920"
     inkscape:window-height="1023"
     inkscape:window-x="0"
     inkscape:window-y="0"
     inkscape:window-maximized="1"
     inkscape:current-layer="layer1" /><defs
     id="defs380" /><g
     inkscape:label="Layer 1"
     inkscape:groupmode="layer"
     id="layer1"><circle
       style="fill:#000000;stroke-width:0.317499"
       id="path746"
       cx="6.3499999"
       cy="6.3499999"
       r="6.3499999" /><path
       style="fill:#d4aa00;stroke-width:0.021115"
       d="m 2.5135417,6.3500022 c 0,-4.2337302 0,-4.2337302 2.2019466,-4.2333278 2.5641739,4.56e-4 2.5885071,0.00201 3.2468945,0.2070452 1.3050835,0.4064099 2.3528412,1.4081577 2.7849672,2.6626713 0.883735,2.5655951 -0.8394743,5.2147931 -3.6213768,5.5673651 -0.1854368,0.0235 -0.6560873,0.02925 -2.4213053,0.02957 -2.1911262,3.99e-4 -2.1911262,3.99e-4 -2.1911262,-4.2333269 z M 7.2436162,9.7119167 C 10.75193,8.9853847 11.184245,4.3859189 7.86091,3.1443939 7.3026358,2.935835 7.1011722,2.9197923 5.0400997,2.9197712 3.3791718,2.9197539 3.3791718,2.9197539 3.3791718,6.3362675 c 0,1.879083 0.00725,3.4234262 0.016135,3.4318732 0.051989,0.04949 3.5872272,-0.0022 3.8483094,-0.05623 z M 6.4088769,9.0573227 C 4.1610663,8.8953418 3.0575982,6.0639967 4.7963155,4.9197118 5.0884511,4.7274506 5.7325637,4.4944526 5.4999657,4.6651766 4.4274019,5.4524223 4.2933297,6.7875325 5.1862197,7.7895065 5.9848768,8.6857344 7.5910986,8.8493204 8.6293362,8.1401708 8.8227356,8.008073 8.8076628,8.0468065 8.5743622,8.2814433 8.0309326,8.8279844 7.2264218,9.1162347 6.4088769,9.0573227 Z M 7.8701078,8.0241564 C 10.264378,6.168359 7.2661496,2.9091827 4.6938475,4.5714529 c -0.1778772,0.114948 -0.1541452,0.066651 0.075743,-0.1541455 0.5406651,-0.5192817 1.1696762,-0.77648 1.8989763,-0.77648 2.6774639,0 3.8115132,3.5575376 1.3960452,4.3794239 -0.263708,0.089731 -0.3063353,0.090585 -0.194504,0.00391 z"
       id="path479" /></g></svg>
